<svg width="56" height="42" viewBox="0 0 56 42" fill="none" xmlns="http://www.w3.org/2000/svg">
<path d="M28 0C31.6667 0.0839998 34.8442 1.22951 37.5322 3.4375C40.2202 5.6455 41.9391 8.56217 42.6885 12.1875C46.5216 12.6875 49.6777 14.3021 52.1562 17.0312C54.6349 19.7606 55.916 23.084 56 27C55.8746 31.2504 54.4065 34.7819 51.5947 37.5938C48.7827 40.4058 45.2507 41.8747 41 42H30V30H38L28 18L18 30H26V42H15C10.7495 41.8746 7.21818 40.4056 4.40625 37.5938C1.59436 34.7819 0.12543 31.2505 0 27C0.084 23.0827 1.36606 19.7593 3.84473 17.0312C6.32334 14.3035 9.47935 12.6888 13.3125 12.1875C14.0631 8.56232 15.7813 5.64546 18.4678 3.4375C21.1544 1.22955 24.3321 0.0840473 28 0Z" fill="black" fill-opacity="0.25"/>
</svg>
