<svg width="77" height="77" viewBox="0 0 77 77" fill="none" xmlns="http://www.w3.org/2000/svg">
<path fill-rule="evenodd" clip-rule="evenodd" d="M38.5 76.375C59.4178 76.375 76.375 59.4178 76.375 38.5C76.375 17.5822 59.4178 0.625 38.5 0.625C17.5822 0.625 0.625 17.5822 0.625 38.5C0.625 59.4178 17.5822 76.375 38.5 76.375ZM58.5663 28.5691C60.0542 26.7836 59.8129 24.13 58.0274 22.6421C56.2419 21.1542 53.5883 21.3954 52.1004 23.1809L36.959 41.3506C35.4999 43.1015 34.6796 44.0708 34.0248 44.6665L33.9997 44.6892L33.9728 44.6689C33.2666 44.1349 32.362 43.2438 30.7503 41.6322L24.6424 35.5243C22.9989 33.8808 20.3344 33.8808 18.6909 35.5243C17.0475 37.1677 17.0475 39.8323 18.6909 41.4757L24.7989 47.5837L24.9706 47.7555C26.3447 49.13 27.6665 50.4523 28.8963 51.3823C30.274 52.424 32.0782 53.4036 34.3903 53.2987C36.7024 53.1939 38.4105 52.055 39.6882 50.8928C40.8287 49.8553 42.0254 48.4188 43.2693 46.9255L43.2693 46.9255L43.4249 46.7388L58.5663 28.5691ZM33.6326 44.9796C33.6326 44.9795 33.6345 44.9783 33.6384 44.9763C33.6345 44.9786 33.6325 44.9796 33.6326 44.9796ZM34.3901 44.9444C34.3891 44.9439 34.3876 44.9433 34.3856 44.9424C34.3897 44.9444 34.3917 44.9452 34.3917 44.9451C34.3917 44.9451 34.3911 44.9448 34.3901 44.9444Z" fill="#10B981"/>
</svg>
